<?xml version="1.0" encoding="utf-8"?>
<!-- Generator: Adobe Illustrator 26.2.0, SVG Export Plug-In . SVG Version: 6.00 Build 0)  -->
<svg version="1.1" id="Livello_1" xmlns="http://www.w3.org/2000/svg" xmlns:xlink="http://www.w3.org/1999/xlink" x="0px" y="0px"
	 viewBox="0 0 600 90" style="enable-background:new 0 0 600 90;" xml:space="preserve">
<style type="text/css">
	.st0{fill:#FFFFFF;}
</style>
<g>
	<g>
		<g>
			<path class="st0" d="M52.1,90c-9.7,0-21.1-4.4-34-13C17.1,76.4,1.7,66.5,0.1,51.2c-0.9-9.1,3.3-18,12.4-26.7
				c1.3-1.4,33.9-34.7,58.1-21.4c0.7,0.3,19.6,9.6,13.7,50.5c-0.1,1-3,25.7-20.4,33.8C60.2,89.1,56.3,90,52.1,90z M58.2,2.5
				C37.4,2.5,14.5,26,14.3,26.3C5.7,34.4,1.7,42.7,2.6,51C4,65.2,19.2,74.8,19.3,74.9l0,0c17.8,12,32.4,15.4,43.4,10.3
				c16.2-7.5,19-31.6,19-31.9c5.6-39-12.1-47.9-12.3-48C65.9,3.4,62.1,2.5,58.2,2.5z"/>
		</g>
	</g>
	<g>
		<path class="st0" d="M58.8,50.1L46.1,23.6l1.9-3.9l14.6,30.5H58.8z M33.4,50.1l11.9-24.9l11.9,24.9H33.4z M70.1,65.9h1.6l-23-48.2
			h-1.3l-2,4.3l-2-4.3H42l-23,48.2h1.6l6.8-14.4l0.7-1.4l14.6-30.5l1.9,4L24.3,65.9h1.6l6.8-14.4h25.1l6.8,14.4h1.6l-6.9-14.4h3.8
			L70.1,65.9"/>
	</g>
	<g>
		<path class="st0" d="M72.2,66.2h-2.3L63,51.8H60l6.9,14.4h-2.3l-6.8-14.4H32.9l-6.8,14.4h-2.3l20.3-42.5l-1.6-3.3L20.7,66.2h-2.3
			l23.3-48.8h1.7l1.8,3.9l1.8-3.9h1.7L72.2,66.2z M70.3,65.6h0.9L48.5,18h-0.9l-2.2,4.7L43.1,18h-0.9L19.4,65.6h0.9L27.8,50
			l14.8-31.1l2.2,4.7l-20,41.9h0.9l6.8-14.4h25.5l6.8,14.4h1L59,51.2h4.5L70.3,65.6z M63,50.5h-4.4L45.8,23.6l2.2-4.6L63,50.5z
			 M59,49.8h3L48,20.4l-1.5,3.2L59,49.8z M57.7,50.5H32.9l12.4-25.9L57.7,50.5z M33.9,49.8h22.8L45.3,26L33.9,49.8z"/>
	</g>
	<g>
		<polygon class="st0" points="95,28.1 95,22.8 129.9,22.8 129.9,26.8 102.4,59.3 129.9,59.3 129.9,64.6 94,64.6 94,60.6 
			121.5,28.1 		"/>
	</g>
	<g>
		<g>
			<path class="st0" d="M157.9,60.1c5.7,0,9.7-2.3,13-5.9l3.8,3.5c-4.2,4.7-9.2,7.8-17,7.8c-11.4,0-20.6-8.8-20.6-21.8
				c0-12.1,8.4-21.8,19.8-21.8c12.2,0,19.3,9.9,19.3,22.1c0,0.6,0,1.2-0.1,1.9h-32.8C144.3,55.1,150.7,60.1,157.9,60.1 M170,41.4
				c-0.6-7.6-5-14.2-13.2-14.2c-7.2,0-12.6,6.1-13.4,14.2H170"/>
		</g>
		<g>
			<path class="st0" d="M412.9,60.1c5.7,0,9.7-2.3,13-5.9l3.8,3.5c-4.2,4.7-9.2,7.8-17,7.8c-11.4,0-20.6-8.8-20.6-21.8
				c0-12.1,8.4-21.8,19.8-21.8c12.2,0,19.3,9.9,19.3,22.1c0,0.6,0,1.2-0.1,1.9h-32.8C399.2,55.1,405.6,60.1,412.9,60.1 M424.9,41.4
				c-0.6-7.6-5-14.2-13.2-14.2c-7.2,0-12.6,6.1-13.4,14.2H424.9"/>
		</g>
		<g>
			<path class="st0" d="M193.2,64.6H187V22.8h6.2v10.9c3-6.9,9-12,16.9-11.6v6.7h-0.5c-9,0-16.4,6.5-16.4,19.1V64.6"/>
		</g>
		<g>
			<path class="st0" d="M367.8,64.6h-6.2V22.8h6.2v10.9c3-6.9,9-12,16.9-11.6v6.7h-0.5c-9,0-16.4,6.5-16.4,19.1V64.6"/>
		</g>
		<g>
			<path class="st0" d="M236.5,65.6c-12.4,0-21.4-9.9-21.4-21.7c0-11.9,9.1-21.9,21.6-21.9c12.4,0,21.5,9.9,21.5,21.7
				C258.2,55.5,249,65.6,236.5,65.6 M236.5,27.4c-9,0-15.1,7.2-15.1,16.2S228,60,236.7,60c9,0,15.2-7.2,15.2-16.2
				C251.9,34.7,245.2,27.4,236.5,27.4"/>
		</g>
		<g>
			<path class="st0" d="M320.2,30.8l-1.8-5.1c4.6-2.1,9-3.5,15-3.5c11.3,0,17.6,5.8,17.6,16.8v25.5H345v-6.3
				c-2.9,3.8-7.7,7.2-15,7.2c-7.7,0-15.4-4.4-15.4-13.1c0-8.9,7.2-13.6,17.7-13.6c5.3,0,9,0.7,12.7,1.8v-1.5
				c0-7.5-4.6-11.4-12.3-11.4C327.8,27.8,324,29,320.2,30.8 M320.9,52.1c0,5.3,4.8,8.4,10.4,8.4c7.6,0,13.8-4.7,13.8-11.3v-4
				c-3-0.9-7.1-1.8-12.2-1.8C325.2,43.4,320.9,46.8,320.9,52.1"/>
		</g>
		<g>
			<path class="st0" d="M290.3,65.6c-12.1,0-21.2-9.9-21.2-21.7c0-11.9,9.1-21.9,21.2-21.9c7.8,0,12.7,3.3,16.6,7.4l-4.1,4.4
				c-3.3-3.5-7-6.3-12.6-6.3c-8.4,0-14.8,7.2-14.8,16.2c0,9.1,6.6,16.3,15.2,16.3c5.3,0,9.4-2.7,12.6-6.2l3.9,3.7
				C303,62.2,298.1,65.6,290.3,65.6"/>
		</g>
	</g>
	<g>
		<g>
			<path class="st0" d="M448,31c0,3.8-3,6.7-6.8,6.7c-3.8,0-6.8-3-6.8-6.7c0-3.7,3-6.6,6.8-6.6C445,24.3,448,27.3,448,31z M436,31
				c0,3,2.2,5.3,5.2,5.3c2.9,0,5.1-2.3,5.1-5.3c0-3-2.1-5.3-5.1-5.3C438.2,25.7,436,28.1,436,31z M440.1,34.5h-1.5v-6.6
				c0.6-0.1,1.5-0.2,2.6-0.2c1.3,0,1.8,0.2,2.3,0.5c0.4,0.3,0.6,0.8,0.6,1.5c0,0.7-0.6,1.3-1.4,1.5v0.1c0.7,0.2,1,0.7,1.2,1.6
				c0.2,1,0.3,1.4,0.5,1.7h-1.7c-0.2-0.2-0.3-0.9-0.5-1.6c-0.1-0.7-0.5-1.1-1.4-1.1h-0.7V34.5z M440.2,30.7h0.7c0.9,0,1.5-0.3,1.5-1
				c0-0.6-0.4-1-1.4-1c-0.4,0-0.7,0-0.8,0.1V30.7z"/>
		</g>
	</g>
	<g>
		<g>
			<path class="st0" d="M585.1,65.5c8.3,0,14.9-4.6,14.9-12.5v-0.2c0-7.5-7-10-13.4-12c-5.6-1.7-10.8-3.2-10.8-7.2v-0.2
				c0-3.5,3.2-6.1,8.1-6.1c4,0,8.5,1.5,12.4,4l2.8-4.7c-4.3-2.8-10-4.6-15.1-4.6c-8.3,0-14.3,4.8-14.3,12v0.2
				c0,7.7,7.3,10,13.8,11.8c5.5,1.5,10.4,3.2,10.4,7.4v0.2c0,4-3.6,6.6-8.7,6.6c-4.9,0-10-1.9-14.5-5.3l-3.2,4.5
				C572.5,63.2,579.1,65.5,585.1,65.5 M539.2,65.6c7.2,0,11.5-3.6,14.3-8.2v7.3h6.2V22.9h-6.2v24c0,7.9-5.4,13.1-12.5,13.1
				c-7.4,0-11.6-4.9-11.6-12.6V22.9h-6.2v26C523.2,58.8,529.1,65.6,539.2,65.6 M505.5,64.7h6.2V5.6h-6.2V64.7z M474.7,60
				c-7.8,0-15.1-6.5-15.1-16.2v-0.2c0-9.6,7.4-16.1,15.1-16.1c7.9,0,14.7,6.3,14.7,16.2v0.2C489.5,54,482.8,60,474.7,60 M453.6,77.7
				h6.2v-21c3.2,4.7,8.3,8.9,16,8.9c10.1,0,20-8.1,20-21.8v-0.2c0-13.8-10-21.7-20-21.7c-7.7,0-12.6,4.3-16,9.3v-8.4h-6.2V77.7z"/>
		</g>
	</g>
</g>
</svg>
